bicep_curl
version=1
nRows=272
nColumns=3
inDegrees=yes

# SIMM Motion File Header:
name bicep_curl
datacolumns 3
datarows 272
otherdata 1
range 0.0000 0.2710
endheader
time	/jointset/r_shoulder/r_shoulder_elev/value	/jointset/r_elbow/r_elbow_flex/value
0.0000	0.0000	46.6200
0.0010	0.0000	46.5965
0.0020	0.0000	46.5741
0.0030	0.0000	46.5528
0.0040	0.0000	46.5326
0.0050	0.0000	46.5135
0.0060	0.0000	46.4956
0.0070	0.0000	46.4787
0.0080	0.0000	46.4630
0.0090	0.0000	46.4483
0.0100	0.0000	46.4348
0.0110	0.0000	46.4224
0.0120	0.0000	46.4111
0.0130	0.0000	46.4009
0.0140	0.0000	46.3918
0.0150	0.0000	46.3838
0.0160	0.0000	46.3769
0.0170	0.0000	46.3711
0.0180	0.0000	46.3665
0.0190	0.0000	46.3629
0.0200	0.0000	46.3605
0.0210	0.0000	46.3591
0.0220	0.0000	46.3589
0.0230	0.0000	46.3598
0.0240	0.0000	46.3618
0.0250	0.0000	46.3649
0.0260	0.0000	46.3691
0.0270	0.0000	46.3744
0.0280	0.0000	46.3808
0.0290	0.0000	46.3883
0.0300	0.0000	46.3970
0.0310	0.0000	46.4067
0.0320	0.0000	46.4176
0.0330	0.0000	46.4296
0.0340	0.0000	46.4426
0.0350	0.0000	46.4568
0.0360	0.0000	46.4721
0.0370	0.0000	46.4885
0.0380	0.0000	46.5060
0.0390	0.0000	46.5246
0.0400	0.0000	46.5444
0.0410	0.0000	46.5652
0.0420	0.0000	46.5871
0.0430	0.0000	46.6102
0.0440	0.0000	46.6344
0.0450	0.0000	46.6596
0.0460	0.0000	46.6860
0.0470	0.0000	46.7135
0.0480	0.0000	46.7421
0.0490	0.0000	46.7718
0.0500	0.0000	46.8026
0.0510	0.0000	46.8345
0.0520	0.0000	46.8676
0.0530	0.0000	46.9017
0.0540	0.0000	46.9370
0.0550	0.0000	46.9733
0.0560	0.0000	47.0108
0.0570	0.0000	47.0494
0.0580	0.0000	47.0890
0.0590	0.0000	47.1298
0.0600	0.0000	47.1717
0.0610	0.0000	47.2147
0.0620	0.0000	47.2589
0.0630	0.0000	47.3041
0.0640	0.0000	47.3504
0.0650	0.0000	47.3979
0.0660	0.0000	47.4464
0.0670	0.0000	47.4961
0.0680	0.0000	47.5468
0.0690	0.0000	47.5987
0.0700	0.0000	47.6517
0.0710	0.0000	47.7058
0.0720	0.0000	47.7610
0.0730	0.0000	47.8173
0.0740	0.0000	47.8747
0.0750	0.0000	47.9333
0.0760	0.0000	47.9929
0.0770	0.0000	48.0537
0.0780	0.0000	48.1155
0.0790	0.0000	48.1785
0.0800	0.0000	48.2426
0.0810	0.0000	48.3077
0.0820	0.0000	48.3740
0.0830	0.0000	48.4414
0.0840	0.0000	48.5099
0.0850	0.0000	48.5795
0.0860	0.0000	48.6503
0.0870	0.0000	48.7221
0.0880	0.0000	48.7950
0.0890	0.0000	48.8691
0.0900	0.0000	48.9443
0.0910	0.0000	49.0205
0.0920	0.0000	49.0979
0.0930	0.0000	49.1764
0.0940	0.0000	49.2560
0.0950	0.0000	49.3367
0.0960	0.0000	49.4185
0.0970	0.0000	49.5014
0.0980	0.0000	49.5854
0.0990	0.0000	49.6706
0.1000	0.0000	49.7568
0.1010	0.0000	49.8442
0.1020	0.0000	49.9326
0.1030	0.0000	50.0222
0.1040	0.0000	50.1129
0.1050	0.0000	50.2047
0.1060	0.0000	50.2976
0.1070	0.0000	50.3916
0.1080	0.0000	50.4867
0.1090	0.0000	50.5829
0.1100	0.0000	50.6803
0.1110	0.0000	50.7787
0.1120	0.0000	50.8782
0.1130	0.0000	50.9789
0.1140	0.0000	51.0807
0.1150	0.0000	51.1835
0.1160	0.0000	51.2875
0.1170	0.0000	51.3926
0.1180	0.0000	51.4988
0.1190	0.0000	51.6061
0.1200	0.0000	51.7146
0.1210	0.0000	51.8241
0.1220	0.0000	51.9347
0.1230	0.0000	52.0465
0.1240	0.0000	52.1593
0.1250	0.0000	52.2733
0.1260	0.0000	52.3883
0.1270	0.0000	52.5045
0.1280	0.0000	52.6218
0.1290	0.0000	52.7402
0.1300	0.0000	52.8597
0.1310	0.0000	52.9803
0.1320	0.0000	53.1020
0.1330	0.0000	53.2249
0.1340	0.0000	53.3488
0.1350	0.0000	53.4739
0.1360	0.0000	53.6000
0.1370	0.0000	53.7273
0.1380	0.0000	53.8557
0.1390	0.0000	53.9851
0.1400	0.0000	54.1157
0.1410	0.0000	54.2474
0.1420	0.0000	54.3802
0.1430	0.0000	54.5142
0.1440	0.0000	54.6492
0.1450	0.0000	54.7853
0.1460	0.0000	54.9226
0.1470	0.0000	55.0609
0.1480	0.0000	55.2004
0.1490	0.0000	55.3409
0.1500	0.0000	55.4826
0.1510	0.0000	55.6254
0.1520	0.0000	55.7693
0.1530	0.0000	55.9143
0.1540	0.0000	56.0604
0.1550	0.0000	56.2076
0.1560	0.0000	56.3560
0.1570	0.0000	56.5054
0.1580	0.0000	56.6559
0.1590	0.0000	56.8076
0.1600	0.0000	56.9604
0.1610	0.0000	57.1142
0.1620	0.0000	57.2692
0.1630	0.0000	57.4253
0.1640	0.0000	57.5825
0.1650	0.0000	57.7408
0.1660	0.0000	57.9002
0.1670	0.0000	58.0608
0.1680	0.0000	58.2224
0.1690	0.0000	58.3851
0.1700	0.0000	58.5490
0.1710	0.0000	58.7139
0.1720	0.0000	58.8800
0.1730	0.0000	59.0472
0.1740	0.0000	59.2155
0.1750	0.0000	59.3849
0.1760	0.0000	59.5554
0.1770	0.0000	59.7270
0.1780	0.0000	59.8997
0.1790	0.0000	60.0735
0.1800	0.0000	60.2485
0.1810	0.0000	60.4245
0.1820	0.0000	60.6017
0.1830	0.0000	60.7799
0.1840	0.0000	60.9593
0.1850	0.0000	61.1398
0.1860	0.0000	61.3214
0.1870	0.0000	61.5041
0.1880	0.0000	61.6879
0.1890	0.0000	61.8728
0.1900	0.0000	62.0588
0.1910	0.0000	62.2459
0.1920	0.0000	62.4342
0.1930	0.0000	62.6235
0.1940	0.0000	62.8140
0.1950	0.0000	63.0055
0.1960	0.0000	63.1982
0.1970	0.0000	63.3920
0.1980	0.0000	63.5869
0.1990	0.0000	63.7829
0.2000	0.0000	63.9800
0.2010	0.0000	63.9752
0.2020	0.0000	63.9714
0.2030	0.0000	63.9684
0.2040	0.0000	63.9664
0.2050	0.0000	63.9653
0.2060	0.0000	63.9650
0.2070	0.0000	63.9658
0.2080	0.0000	63.9674
0.2090	0.0000	63.9699
0.2100	0.0000	63.9733
0.2110	0.0000	63.9777
0.2120	0.0000	63.9830
0.2130	0.0000	63.9892
0.2140	0.0000	63.9963
0.2150	0.0000	64.0043
0.2160	0.0000	64.0132
0.2170	0.0000	64.0230
0.2180	0.0000	64.0338
0.2190	0.0000	64.0454
0.2200	0.0000	64.0580
0.2210	0.0000	64.0715
0.2220	0.0000	64.0859
0.2230	0.0000	64.1012
0.2240	0.0000	64.1175
0.2250	0.0000	64.1346
0.2260	0.0000	64.1527
0.2270	0.0000	64.1716
0.2280	0.0000	64.1915
0.2290	0.0000	64.2123
0.2300	0.0000	64.2340
0.2310	0.0000	64.2567
0.2320	0.0000	64.2802
0.2330	0.0000	64.3046
0.2340	0.0000	64.3300
0.2350	0.0000	64.3563
0.2360	0.0000	64.3835
0.2370	0.0000	64.4116
0.2380	0.0000	64.4406
0.2390	0.0000	64.4705
0.2400	0.0000	64.5014
0.2410	0.0000	64.5331
0.2420	0.0000	64.5658
0.2430	0.0000	64.5994
0.2440	0.0000	64.6339
0.2450	0.0000	64.6693
0.2460	0.0000	64.7056
0.2470	0.0000	64.7428
0.2480	0.0000	64.7810
0.2490	0.0000	64.8201
0.2500	0.0000	64.8600
0.2510	0.0000	64.9009
0.2520	0.0000	64.9427
0.2530	0.0000	64.9855
0.2540	0.0000	65.0291
0.2550	0.0000	65.0736
0.2560	0.0000	65.1191
0.2570	0.0000	65.1655
0.2580	0.0000	65.2127
0.2590	0.0000	65.2609
0.2600	0.0000	65.3100
0.2610	0.0000	65.3601
0.2620	0.0000	65.4110
0.2630	0.0000	65.4629
0.2640	0.0000	65.5156
0.2650	0.0000	65.5693
0.2660	0.0000	65.6239
0.2670	0.0000	65.6794
0.2680	0.0000	65.7358
0.2690	0.0000	65.7931
0.2700	0.0000	65.8514
0.2710	0.0000	65.9105
